<svg width="111" height="19" viewBox="0 0 111 19" fill="none" xmlns="http://www.w3.org/2000/svg">
<path d="M15.4297 17L20.0469 3.54688H21.2188V2.9375H17.3984V3.54688H19.2734L15.6641 14.3984L11.9141 3.54688H13.8125V2.9375H9.52344L11.1406 7.46094L8.72656 14.4219L4.8125 3.54688H6.71094V2.9375H1.32031V3.54688H2.65625L7.01562 15.5234C7.34375 16.4141 7.63281 16.9141 7.88281 17.0234C7.99219 17.0703 8.10938 17.0938 8.23438 17.0938H8.49219L11.5391 8.53906L14.0469 15.5234C14.3438 16.3516 14.5938 16.8203 14.7969 16.9297C14.9062 16.9766 15.0391 17 15.1953 17H15.4297ZM27.2891 16.4141H25.6016V11.2578C25.7109 9.91406 26.1641 8.90625 26.9609 8.23438C27.2266 8.01562 27.4531 7.90625 27.6406 7.90625C27.875 7.90625 28.1016 8.10156 28.3203 8.49219C28.5703 8.92969 28.8203 9.1875 29.0703 9.26562C29.1797 9.29688 29.2891 9.3125 29.3984 9.3125C29.9141 9.3125 30.25 9.07031 30.4062 8.58594C30.4375 8.46094 30.4531 8.34375 30.4531 8.23438C30.4531 7.51562 30.0938 7.07812 29.375 6.92188C29.2188 6.89062 29.0547 6.875 28.8828 6.875C27.9141 6.875 27.0547 7.28125 26.3047 8.09375C25.9922 8.4375 25.7422 8.82812 25.5547 9.26562L25.4609 7.01562H21.9219V7.60156H23.5859V15.0312C23.5859 15.75 23.375 16.1797 22.9531 16.3203C22.7344 16.3828 22.3906 16.4141 21.9219 16.4141V17H27.875C27.875 16.6562 27.7578 16.4688 27.5234 16.4375C27.4609 16.4219 27.3828 16.4141 27.2891 16.4141ZM36.125 16.4141H35.0234V7.01562H31.25V7.60156H33.0312V15.0312C33.0312 15.75 32.7891 16.1797 32.3047 16.3203C32.0703 16.3828 31.7188 16.4141 31.25 16.4141V17H36.7109C36.7109 16.6562 36.5938 16.4688 36.3594 16.4375C36.2969 16.4219 36.2188 16.4141 36.125 16.4141ZM35.2812 3.66406C35.2812 3.10156 35.0312 2.6875 34.5312 2.42188C34.3281 2.32812 34.125 2.28125 33.9219 2.28125C33.3438 2.28125 32.9297 2.53906 32.6797 3.05469C32.5859 3.25781 32.5391 3.46094 32.5391 3.66406C32.5391 4.25781 32.8047 4.67969 33.3359 4.92969C33.5234 5.00781 33.7188 5.04688 33.9219 5.04688C34.4844 5.04688 34.8906 4.78906 35.1406 4.27344C35.2344 4.07031 35.2812 3.86719 35.2812 3.66406ZM37.8125 7.625H39.4531V14.0938C39.5625 16.1406 40.5078 17.1953 42.2891 17.2578C43.7578 17.2578 44.6719 16.375 45.0312 14.6094C45.0312 14.5938 45.0312 14.5781 45.0312 14.5625L44.3984 14.4453C44.0703 15.8359 43.5078 16.5391 42.7109 16.5547C41.8828 16.5234 41.4609 15.9219 41.4453 14.75V7.625H44.9844V7.03906H41.4453V4.32031L39.4531 4.8125V7.03906H37.8125V7.625ZM51.0078 7.34375C52.0703 7.34375 52.7578 7.82812 53.0703 8.79688C53.1641 9.09375 53.2109 9.40625 53.2109 9.73438C53.2109 10.5 52.8672 10.9688 52.1797 11.1406C51.7891 11.2344 51.25 11.2734 50.5625 11.2578L48.2656 11.1875C48.3281 9.34375 48.8906 8.14844 49.9531 7.60156C50.2812 7.42969 50.6328 7.34375 51.0078 7.34375ZM55.1562 14.7266L54.5703 14.5156C54.0703 15.6094 53.2734 16.2734 52.1797 16.5078C51.9297 16.5547 51.6875 16.5781 51.4531 16.5781C49.7969 16.5781 48.7812 15.5312 48.4062 13.4375C48.3281 12.9531 48.2812 12.4219 48.2656 11.8438L50.9609 11.8906C52.9609 11.9219 54.2344 11.7188 54.7812 11.2812C55.1406 10.9688 55.3203 10.5469 55.3203 10.0156C55.3203 8.90625 54.7578 8.03125 53.6328 7.39062C52.8516 6.96875 51.9609 6.75781 50.9609 6.75781C49.0703 6.75781 47.6797 7.51562 46.7891 9.03125C46.2891 9.90625 46.0391 10.9141 46.0391 12.0547C46.0391 14.0547 46.7656 15.5234 48.2188 16.4609C49.0469 16.9766 49.9844 17.2344 51.0312 17.2344C52.7812 17.2344 54.0547 16.6016 54.8516 15.3359C54.9609 15.1328 55.0625 14.9297 55.1562 14.7266ZM64.9766 17H68.4922C68.4922 16.6719 68.3906 16.4844 68.1875 16.4375C68.1094 16.4219 68.0234 16.4141 67.9297 16.4141H66.7578L66.7344 1.76562H62.5156V2.35156H64.7188V7.95312C63.9375 7.15625 62.9219 6.75781 61.6719 6.75781C60.0156 6.75781 58.7422 7.46875 57.8516 8.89062C57.2578 9.875 56.9609 10.9922 56.9609 12.2422C56.9609 14.1641 57.5781 15.5781 58.8125 16.4844C59.5 16.9844 60.2656 17.2344 61.1094 17.2344C62.8281 17.2031 64.0469 16.3125 64.7656 14.5625L64.9766 17ZM59.1875 11.9609C59.1875 9.77344 59.75 8.35156 60.875 7.69531C61.2344 7.47656 61.6406 7.36719 62.0938 7.36719C63.2031 7.36719 63.9844 7.98438 64.4375 9.21875C64.6719 9.875 64.7891 10.6406 64.7891 11.5156C64.7891 13.4844 64.3125 14.8828 63.3594 15.7109C62.9062 16.0859 62.3906 16.2734 61.8125 16.2734C60.6094 16.2734 59.8125 15.5078 59.4219 13.9766C59.2656 13.3828 59.1875 12.7109 59.1875 11.9609ZM72.1484 11.9844C72.1641 8.90625 73.1328 7.35938 75.0547 7.34375C76.9766 7.375 77.9453 8.89062 77.9609 11.8906C77.9453 15.0469 76.9922 16.6328 75.1016 16.6484C73.1484 16.6172 72.1641 15.0625 72.1484 11.9844ZM75.125 6.75781C73.5469 6.75781 72.25 7.29688 71.2344 8.375C70.3594 9.32812 69.9219 10.5 69.9219 11.8906C69.9219 13.7969 70.6094 15.25 71.9844 16.25C72.8906 16.9062 73.9062 17.2344 75.0312 17.2344C76.5781 17.2344 77.8516 16.6875 78.8516 15.5938C79.7578 14.6094 80.2109 13.3984 80.2109 11.9609C80.2109 10.0547 79.5078 8.61719 78.1016 7.64844C77.2266 7.05469 76.2344 6.75781 75.125 6.75781ZM86.0234 7.60156V7.01562H81.2422V7.60156H82.2734L85.1562 15.4531C85.4844 16.3438 85.8203 16.8672 86.1641 17.0234C86.3203 17.0859 86.5312 17.1172 86.7969 17.1172H87.3125L89.375 10.8594L90.9922 15.4531C91.2891 16.3438 91.5859 16.8594 91.8828 17C92.0391 17.0781 92.2578 17.1172 92.5391 17.1172H92.9844L95.8438 8.42188C96 7.9375 96.1953 7.67188 96.4297 7.625C96.5078 7.60938 96.5859 7.60156 96.6641 7.60156C97.0078 7.60156 97.1953 7.47656 97.2266 7.22656C97.2422 7.16406 97.25 7.09375 97.25 7.01562H93.8047V7.60156H95.4219L92.8906 15.4297L90.2188 7.60156H91.8125V7.01562H88.0391L89.0469 9.875L87.1953 15.5234L84.3359 7.60156H86.0234ZM102.547 16.4141H101.586V11.2578C101.617 9.83594 102.102 8.8125 103.039 8.1875C103.445 7.9375 103.852 7.8125 104.258 7.8125C105.211 7.8125 105.844 8.26562 106.156 9.17188C106.266 9.51562 106.32 9.89062 106.32 10.2969V15.0312C106.32 15.7344 106.117 16.1562 105.711 16.2969C105.492 16.375 105.156 16.4141 104.703 16.4141V17H110C110 16.6562 109.883 16.4688 109.648 16.4375C109.586 16.4219 109.508 16.4141 109.414 16.4141H108.312V10.5547C108.312 8.91406 107.75 7.78125 106.625 7.15625C106.141 6.89062 105.625 6.75781 105.078 6.75781C103.922 6.75781 102.961 7.22656 102.195 8.16406C101.93 8.47656 101.719 8.82812 101.562 9.21875L101.469 7.01562H97.9062V7.60156H99.5938V15.0312C99.5938 15.75 99.375 16.1797 98.9375 16.3203C98.7031 16.3828 98.3594 16.4141 97.9062 16.4141V17H103.133C103.133 16.6562 103.016 16.4688 102.781 16.4375C102.719 16.4219 102.641 16.4141 102.547 16.4141Z" fill="#36312E"/>
</svg>
